<?xml version="1.0" encoding="UTF-8" standalone="no"?>
<svg
   xmlns:dc="http://purl.org/dc/elements/1.1/"
   xmlns:cc="http://creativecommons.org/ns#"
   xmlns:rdf="http://www.w3.org/1999/02/22-rdf-syntax-ns#"
   xmlns:svg="http://www.w3.org/2000/svg"
   xmlns="http://www.w3.org/2000/svg"
   viewBox="0 0 554.66669 321.33334"
   height="321.33334"
   width="554.66669"
   xml:space="preserve"
   id="svg2"
   version="1.1"><metadata
     id="metadata8"><rdf:RDF><cc:Work
         rdf:about=""><dc:format>image/svg+xml</dc:format><dc:type
           rdf:resource="http://purl.org/dc/dcmitype/StillImage" /></cc:Work></rdf:RDF></metadata><defs
     id="defs6" /><g
     transform="matrix(1.3333333,0,0,-1.3333333,0,321.33333)"
     id="g10"><g
       transform="scale(0.1)"
       id="g12"><path
         id="path14"
         style="fill:#ffffff;fill-opacity:1;fill-rule:evenodd;stroke:none"
         d="m 2068.36,825 c -224.34,5.66 -411.02,83.16 -560,232.5 -149.34,148.98 -226.84,335.66 -232.5,560 5.66,224.34 83.16,410.98 232.5,560 148.98,149.34 335.66,226.84 560,232.5 224.34,-5.66 410.98,-83.16 560,-232.5 149.34,-149.02 226.84,-335.66 232.5,-560 -5.66,-224.34 -83.16,-411.02 -232.5,-560 C 2479.34,908.16 2292.7,830.66 2068.36,825" /><path
         id="path16"
         style="fill:#0f70b8;fill-opacity:1;fill-rule:evenodd;stroke:none"
         d="m 2487.85,2183.98 v 64.5 c -46.99,31.36 -97.34,57.18 -151.01,77.5 v -56.49 c 54.33,-22.65 104.68,-51.17 151.01,-85.51" /><path
         id="path18"
         style="fill:#0f70b8;fill-opacity:1;fill-rule:evenodd;stroke:none"
         d="m 1372.34,1730.51 -45,45 c -8.98,-42.03 -14.33,-85.35 -15.97,-130 h 52.5 c 1.33,28.63 4.14,56.99 8.47,85" /><path
         id="path20"
         style="fill:#0f70b8;fill-opacity:1;fill-rule:evenodd;stroke:none"
         d="m 1484.84,2011.99 -38,38.01 c -20.98,-30 -39.65,-61.33 -55.98,-94.02 l 39.49,-39.5 c 15.67,33.36 33.83,65.16 54.49,95.51" /><path
         id="path22"
         style="fill:#0f70b8;fill-opacity:1;fill-rule:evenodd;stroke:none"
         d="m 1416.37,1885.51 -40,40 c -16.68,-36.68 -30.2,-74.69 -40.51,-114.03 l 43.48,-43.98 c 9.02,40.98 21.36,80.31 37.03,118.01" /><path
         id="path24"
         style="fill:#0f70b8;fill-opacity:1;fill-rule:evenodd;stroke:none"
         d="m 2604.84,2073.98 v 78.01 c -26.64,26.68 -55.15,51.33 -85.5,73.99 v -67 c 31.01,-25.97 59.53,-54.33 85.5,-85" /><path
         id="path26"
         style="fill:#0f70b8;fill-opacity:1;fill-rule:evenodd;stroke:none"
         d="m 1581.84,2126.99 -37.5,37.5 c -28.64,-27.34 -55,-56.83 -78.99,-88.51 l 37.5,-37.5 c 23.99,31.68 50.35,61.17 78.99,88.51" /><path
         id="path28"
         style="fill:#0f70b8;fill-opacity:1;fill-rule:evenodd;stroke:none"
         d="m 2068.36,2322.5 c 23.98,-0.35 47.5,-1.52 70.51,-3.52 v 52.5 c -23.01,2.35 -46.53,3.52 -70.51,3.52 -47.34,0 -93.67,-4.34 -139.02,-13.01 v -53.51 c 45,9.02 91.36,13.67 139.02,14.02" /><path
         id="path30"
         style="fill:#0f70b8;fill-opacity:1;fill-rule:evenodd;stroke:none"
         d="m 2709.84,1909.49 v 111.02 c -21.99,34.65 -46.48,67.3 -73.47,97.97 V 2035 c 28.63,-39.34 53.16,-81.17 73.47,-125.51" /><path
         id="path32"
         style="fill:#0f70b8;fill-opacity:1;fill-rule:evenodd;stroke:none"
         d="m 2305.35,2281.48 v 55.51 c -43.32,14.34 -88.32,24.65 -135,31.02 V 2315 c 46.68,-6.99 91.68,-18.16 135,-33.52" /><path
         id="path34"
         style="fill:#0f70b8;fill-opacity:1;fill-rule:evenodd;stroke:none"
         d="m 1897.85,2301.48 v 54.03 c -126.01,-30 -236.01,-86.53 -330,-169.53 l 37.5,-37.5 c 83.67,73.36 181.17,124.33 292.5,153" /><path
         id="path36"
         style="fill:#0f70b8;fill-opacity:1;fill-rule:evenodd;stroke:none"
         d="m 2772.34,1645.51 h 53.01 c -5.35,115.97 -33.32,222.5 -83.98,319.49 v -137.5 c 17.97,-58.01 28.32,-118.67 30.97,-181.99" /><path
         id="path38"
         style="fill:#0f70b8;fill-opacity:1;fill-rule:evenodd;stroke:none"
         d="m 2170.35,920 v -53.012 c 25,3.321 49.49,7.852 73.52,13.524 v 53.976 C 2219.84,928.48 2195.35,923.672 2170.35,920" /><path
         id="path40"
         style="fill:#0f70b8;fill-opacity:1;fill-rule:evenodd;stroke:none"
         d="m 1963.36,920 v -53.012 c 23.32,-3.316 46.99,-5.508 70.98,-6.476 v 52.5 c -23.99,1.328 -47.66,3.629 -70.98,6.988" /><path
         id="path42"
         style="fill:#0f70b8;fill-opacity:1;fill-rule:evenodd;stroke:none"
         d="m 2275.35,943.48 v -55 c 25,7.032 49.49,15.348 73.52,25 v 57.032 c -24.03,-10.352 -48.52,-19.34 -73.52,-27.032" /><path
         id="path44"
         style="fill:#0f70b8;fill-opacity:1;fill-rule:evenodd;stroke:none"
         d="m 2068.36,912.5 c -1.02,0 -1.99,0 -3.01,0 V 860 c 1.02,0 1.99,0 3.01,0 23.67,0 47.15,0.98 70.51,3.012 v 52.968 c -23.36,-2.308 -46.84,-3.48 -70.51,-3.48" /><path
         id="path46"
         style="fill:#0f70b8;fill-opacity:1;fill-rule:evenodd;stroke:none"
         d="m 1753.36,986.48 v -58.468 c 23.98,-11.024 48.48,-20.672 73.48,-29.032 v 55.508 c -25.32,9.34 -49.81,20 -73.48,31.992" /><path
         id="path48"
         style="fill:#0f70b8;fill-opacity:1;fill-rule:evenodd;stroke:none"
         d="m 1858.36,943.98 v -55 c 23.98,-6.64 48.48,-12.339 73.48,-16.992 v 53.524 c -25,5 -49.5,11.129 -73.48,18.468" /><path
         id="path50"
         style="fill:#0f70b8;fill-opacity:1;fill-rule:evenodd;stroke:none"
         d="m 1364.34,1583.01 h -52.5 c 8,-141.02 48.67,-267.35 122.03,-379.03 73.32,-111.32 169.33,-198 287.97,-260 v 59.5 c -215.32,126.68 -334.5,319.84 -357.5,579.53" /><path
         id="path52"
         style="fill:#0f70b8;fill-opacity:1;fill-rule:evenodd;stroke:none"
         d="m 2665.86,1242.5 c 2.66,-7.34 3.98,-15.35 3.98,-24.02 -3.98,-42.31 -27.34,-65.47 -70,-69.5 -1.32,0 -2.81,0 -4.49,0 -33.01,-37.34 -69.65,-70.66 -110,-100 V 985 c 206.02,138.98 319.34,338.32 340,598.01 h -52.5 c -7.65,-126.02 -43.32,-239.53 -106.99,-340.51" /><path
         id="path54"
         style="fill:#0f70b8;fill-opacity:1;fill-rule:evenodd;stroke:none"
         d="m 2380.35,985 v -58.012 c 25.35,11.332 49.85,23.992 73.52,38.012 v 61.99 C 2430.2,1011.64 2405.7,997.66 2380.35,985" /><path
         id="path56"
         style="fill:#28a8e1;fill-opacity:1;fill-rule:evenodd;stroke:none"
         d="m 1364.34,1645.98 h 93 l -84.49,84.53 c -4.65,-27.7 -7.5,-55.86 -8.51,-84.53" /><path
         id="path58"
         style="fill:#28a8e1;fill-opacity:1;fill-rule:evenodd;stroke:none"
         d="m 1658.87,1643.48 -1.53,1.52 -25.5,-46.02 c -6.33,-10.31 -15.47,-15.66 -27.5,-15.97 h -39.5 l 169.03,-169.03 -75,229.5" /><path
         id="path60"
         style="fill:#28a8e1;fill-opacity:1;fill-rule:evenodd;stroke:none"
         d="m 1379.84,1767.5 122,-121.99 h 84.02 l 25,45.47 -194.49,194.53 c -15.35,-37.7 -27.5,-77.03 -36.53,-118.01" /><path
         id="path62"
         style="fill:#28a8e1;fill-opacity:1;fill-rule:evenodd;stroke:none"
         d="m 1537.85,1298.98 c 3.99,42.35 27.35,65.67 70,70 42.66,-4.33 66.02,-27.65 70,-70 -3.98,-42.65 -27.34,-65.97 -70,-70 -42.65,4.03 -66.01,27.35 -70,70 m 183.99,-295.5 v 378 l -201.49,201.53 h -156.01 c 23,-259.69 142.18,-452.85 357.5,-579.53" /><path
         id="path64"
         style="fill:#28a8e1;fill-opacity:1;fill-rule:evenodd;stroke:none"
         d="m 1875.35,2083.48 c 2.35,-23.32 15.16,-36.14 38.52,-38.48 23.32,2.34 36.13,15.16 38.47,38.48 -2.34,23.36 -15.15,36.17 -38.47,38.51 -23.36,-2.34 -36.17,-15.15 -38.52,-38.51" /><path
         id="path66"
         style="fill:#28a8e1;fill-opacity:1;fill-rule:evenodd;stroke:none"
         d="M 2034.34,913.012 V 1675 l -25.47,25 -45.51,-289.49 V 920 c 23.32,-3.672 46.99,-6.02 70.98,-6.988" /><path
         id="path68"
         style="fill:#28a8e1;fill-opacity:1;fill-rule:evenodd;stroke:none"
         d="m 2065.35,912.5 c 1.02,-0.352 1.99,-0.512 3.01,-0.512 23.67,0.352 47.15,1.492 70.51,3.524 v 807.968 l -80.51,289.02 -43.52,-274.02 50.51,-50.47 V 912.5" /><path
         id="path70"
         style="fill:#28a8e1;fill-opacity:1;fill-rule:evenodd;stroke:none"
         d="m 2282.85,1915 c 2.35,-23.36 15.16,-36.17 38.52,-38.52 23.32,2.35 36.13,15.16 38.47,38.52 -2.34,23.32 -15.15,36.17 -38.47,38.48 -23.36,-2.31 -36.17,-15.16 -38.52,-38.48" /><path
         id="path72"
         style="fill:#28a8e1;fill-opacity:1;fill-rule:evenodd;stroke:none"
         d="m 1826.84,955 v 173.48 l -73.48,225 v -367 c 23.67,-11.992 48.16,-22.5 73.48,-31.48" /><path
         id="path74"
         style="fill:#28a8e1;fill-opacity:1;fill-rule:evenodd;stroke:none"
         d="m 2243.87,933.98 v 558.01 c -5,-2.65 -10.51,-3.98 -16.53,-3.98 -14.64,1.33 -24.33,8.98 -28.98,22.97 l -28.01,100 V 919.488 c 25,3.672 49.49,8.524 73.52,14.492" /><path
         id="path76"
         style="fill:#28a8e1;fill-opacity:1;fill-rule:evenodd;stroke:none"
         d="m 1756.84,1545 70,-214.02 V 1475 l -70,70" /><path
         id="path78"
         style="fill:#28a8e1;fill-opacity:1;fill-rule:evenodd;stroke:none"
         d="m 2336.37,1598.48 -29.53,51.01 -47,-135 79.5,79.49 c -0.98,1.33 -2,2.86 -2.97,4.5" /><path
         id="path80"
         style="fill:#28a8e1;fill-opacity:1;fill-rule:evenodd;stroke:none"
         d="m 2275.35,943.48 c 25,7.692 49.49,16.68 73.52,27.032 v 436.478 l 187.97,176.02 h -163.99 l -97.5,-97.5 V 943.48" /><path
         id="path82"
         style="fill:#28a8e1;fill-opacity:1;fill-rule:evenodd;stroke:none"
         d="m 2638.36,1218.48 c -2.34,23.36 -15.16,36.17 -38.52,38.51 -23.32,-2.34 -36.17,-15.15 -38.47,-38.51 2.3,-23.32 15.15,-36.14 38.47,-38.48 23.36,2.34 36.18,15.16 38.52,38.48" /><path
         id="path84"
         style="fill:#28a8e1;fill-opacity:1;fill-rule:evenodd;stroke:none"
         d="m 2380.35,985 c 25.35,12.66 49.85,26.64 73.52,41.99 v 272.5 L 2710.35,1540 v 43.01 h -127.5 l -202.5,-190 V 985" /><path
         id="path86"
         style="fill:#28a8e1;fill-opacity:1;fill-rule:evenodd;stroke:none"
         d="m 2485.35,1285.98 v -237 c 40.35,29.34 76.99,62.66 110,100 -40,6.02 -61.68,29.18 -65,69.5 3.99,42.69 27.15,66.01 69.49,70 32.35,-2 54.34,-17.31 66.02,-45.98 63.67,100.98 99.34,214.49 106.99,340.51 h -31.01 v -56.53 l -256.49,-240.5" /><path
         id="path88"
         style="fill:#28a8e1;fill-opacity:1;fill-rule:evenodd;stroke:none"
         d="m 1931.84,925.98 v 286.01 l -22.5,-143.51 c -3.64,-15.32 -13.32,-24.14 -28.99,-26.49 -0.66,0 -1.48,0 -2.5,0 -7.34,0 -13.83,2.35 -19.49,6.99 V 944.488 c 23.98,-7.648 48.48,-13.828 73.48,-18.508" /><path
         id="path90"
         style="fill:#28a8e1;fill-opacity:1;fill-rule:evenodd;stroke:none"
         d="m 2487.85,2183.98 c -46.33,34.69 -96.68,63.17 -151.01,85.51 v -286.01 c 33.36,-10 51.36,-32.82 54.02,-68.48 -4.02,-42.34 -27.34,-65.51 -70,-69.49 -42.34,3.98 -65.51,27.15 -69.49,69.49 2.3,35.66 20.31,58.32 53.98,68.01 v 298.47 c -43.32,15.67 -88.32,26.84 -135,33.52 v -469.49 l 61.49,-220.51 38.51,110.51 c 4.65,12.3 13.52,19.33 26.49,20.97 13.36,0.67 23.51,-4.49 30.5,-15.5 l 54.5,-95 h 9.53 l 96.48,96.52 v 441.48" /><path
         id="path92"
         style="fill:#28a8e1;fill-opacity:1;fill-rule:evenodd;stroke:none"
         d="m 2605.35,2073.98 c -26.33,30.67 -55,59.03 -86.01,85 v -429.49 l -83.48,-83.98 h 168.01 l 1.48,1.48 v 426.99" /><path
         id="path94"
         style="fill:#28a8e1;fill-opacity:1;fill-rule:evenodd;stroke:none"
         d="m 2636.37,2034.49 v -388.98 h 73.47 v 263.47 c -20.31,44.69 -44.84,86.53 -73.47,125.51" /><path
         id="path96"
         style="fill:#28a8e1;fill-opacity:1;fill-rule:evenodd;stroke:none"
         d="m 1502.85,2038.01 428.01,-428.01 23.01,145 -372.03,371.99 c -28.99,-27.34 -55.32,-56.99 -78.99,-88.98" /><path
         id="path98"
         style="fill:#28a8e1;fill-opacity:1;fill-rule:evenodd;stroke:none"
         d="m 2068.87,2321.99 c -48.01,0 -94.53,-4.65 -139.53,-13.98 v -156.53 c 33.67,-9.64 51.83,-32.34 54.53,-68 -4.34,-42.66 -27.7,-65.98 -70,-70 -42.7,4.02 -66.02,27.34 -70,70 2.65,35.66 20.66,58.36 53.98,68 v 149.5 c -111.01,-28.32 -208.51,-79.34 -292.5,-152.97 l 354.49,-354.53 59.03,371.52 c 3.32,15.66 12.97,24.49 28.98,26.48 16.33,-0.31 27.15,-8 32.5,-23 l 58.52,-210.98 v 360.98 c -23.01,2.34 -46.37,3.51 -70,3.51" /><path
         id="path100"
         style="fill:#28a8e1;fill-opacity:1;fill-rule:evenodd;stroke:none"
         d="m 1430.35,1916.48 196.49,-196.48 11.01,20 c 6.99,11.33 17.15,16.64 30.51,15.98 13.32,-1.64 22.34,-8.83 26.99,-21.49 l 40,-123.01 123.01,-123 V 1235 l 8.98,-27.5 58.01,364.49 -440.51,440.51 c -20.66,-30.35 -38.82,-62.34 -54.49,-96.02" /><path
         id="path102"
         style="fill:#28a8e1;fill-opacity:1;fill-rule:evenodd;stroke:none"
         d="m 1646.37,1298.48 c -2.35,23.36 -15.2,36.17 -38.52,38.51 -23.32,-2.34 -36.17,-15.15 -38.51,-38.51 2.34,-23.32 15.19,-36.14 38.51,-38.48 23.32,2.34 36.17,15.16 38.52,38.48" /><path
         id="path104"
         style="fill:#28a8e1;fill-opacity:1;fill-rule:evenodd;stroke:none"
         d="m 2741.37,1645.51 h 30.97 c -2.34,63.32 -12.65,123.98 -30.97,181.99 v -181.99" /><path
         id="path106"
         style="fill:#000000;fill-opacity:1;fill-rule:evenodd;stroke:none"
         d="m 3025.35,1551.48 c -38.32,3.36 -59.33,24.18 -63.01,62.5 3.68,38.36 24.69,59.34 63.01,63.01 38.01,-3.67 58.83,-24.65 62.5,-63.01 -3.67,-38 -24.49,-58.82 -62.5,-62.5 m -1925.51,0 c -38.32,3.36 -59.33,24.18 -63,62.5 3.67,38.36 24.68,59.34 63,63.01 38.01,-3.67 58.83,-24.65 62.5,-63.01 -3.67,-38 -24.49,-58.82 -62.5,-62.5 M 3025.35,1740 c -63.01,-4.34 -103.67,-35.86 -121.99,-94.49 h -521.52 l -55,95 c -7,11.33 -17,16.64 -30,15.97 -12.97,-1.99 -22,-8.98 -27,-20.97 l -38,-110.51 -61.49,220 -31.48,112.5 -59.03,210.98 c -5.31,15 -15.97,22.69 -31.99,23 -16.01,-1.99 -25.82,-10.82 -29.49,-26.48 l -58.52,-371.52 -5.97,-38.48 -23.01,-145 -6.02,-38.01 -58,-365 -8.99,28.01 -31.48,95.98 -69.53,214.02 -21.49,65.98 -40.51,123 c -4.64,12.66 -13.67,20 -26.99,22 -13.32,0.66 -23.51,-4.81 -30.51,-16.49 l -10.97,-19.49 -16.02,-29.02 -25,-45.47 h -363.98 c -18.36,58.63 -58.87,90.15 -121.53,94.49 -76.64,-7.34 -118.668,-49.34 -125.969,-126.02 7.301,-76.32 49.329,-118.16 125.969,-125.5 62.66,4.33 103.17,35.66 121.53,94.02 h 382.5 c 11.99,0.66 21.13,6.17 27.5,16.48 l 25.47,46.02 0.5,0.98 1.02,-2.5 75,-229.5 19.49,-60.5 73.52,-225 21.48,-65 c 1.99,-5.98 5.35,-10.98 10,-15 5.67,-4.34 12.35,-6.64 20,-7 0.67,0 1.49,0.16 2.5,0.51 15.67,1.99 25.16,10.67 28.52,26.02 l 22.5,143.98 31.48,198.99 46.02,289.02 5.97,38.48 43.01,274.02 81.02,-289.02 31.48,-112.5 27.5,-100 c 5,-13.99 14.85,-21.64 29.49,-22.97 6.02,0 11.53,1.48 16.53,4.49 6.64,3.67 11.33,9.34 13.98,16.99 l 1.99,5 47,135 29.53,-51.01 c 0.97,-1.64 1.99,-3.17 2.97,-4.5 6.36,-7.34 14.33,-11.17 24.02,-11.48 h 540 c 18.32,-58.36 58.98,-89.69 121.99,-94.02 76.33,7.34 118.17,49.18 125.51,125.5 -7.34,76.68 -49.18,118.68 -125.51,126.02" /><path
         id="path108"
         style="fill:#002a46;fill-opacity:1;fill-rule:nonzero;stroke:none"
         d="m 12.1094,461.68 v 144.84 c 0,21.57 -0.8985,39.609 -2.66018,54.218 -1.78906,14.692 -4.91797,29.883 -9.371095,45.633 H 74.4492 c 35.6288,0 63.8318,-8.211 84.6918,-24.531 20.937,-16.25 31.41,-38.211 31.41,-65.789 0,-25.231 -12.352,-45.891 -37.031,-62.031 -4.809,-3.239 -10.079,-6.168 -15.79,-8.75 11.329,-3.981 21.411,-9.141 30.161,-15.469 25.507,-17.813 38.281,-42.031 38.281,-72.653 0,-30.546 -12.5,-54.027 -37.5,-70.468 -25,-16.481 -60.582,-24.692 -106.7228,-24.692 H 0.230469 c 4.378911,15.203 7.429691,30.16 9.218751,44.852 1.76168,14.449 2.66018,32.73 2.66018,54.84 z M 64.4492,672.93 V 556.84 h 2.1914 c 21.0196,0 37.7384,5.461 50.1604,16.398 12.379,11.024 18.59,25.942 18.59,44.692 0,16.871 -6.09,30.23 -18.282,40.16 -12.187,9.879 -28.5895,14.84 -49.2184,14.84 z m 0,-140.942 V 395.43 h 0.6289 c 26.3321,0 47.2229,5.82 62.6519,17.5 15.508,11.761 23.29,27.66 23.29,47.66 0,21.871 -8.051,39.25 -24.071,52.18 -15.539,12.39 -36.3592,18.789 -62.4998,19.218 z M 344.922,356.68 c -30.121,0 -55.231,11.129 -75.313,33.441 -20.121,22.379 -30.16,50.469 -30.16,84.219 0,37.691 11.141,69.058 33.442,94.058 22.379,25.082 50.347,37.653 83.91,37.653 30.308,0 55.469,-11.211 75.469,-33.59 20,-22.422 30,-50.43 30,-84.063 0,-37.808 -11.18,-69.218 -33.442,-94.218 -22.187,-25 -50.156,-37.5 -83.906,-37.5 z m 25.777,33.441 c 12.821,5.391 22.973,15.309 30.473,29.68 7.578,14.461 11.406,31.41 11.406,50.789 0,30.39 -7.348,54.762 -22.027,73.121 -14.61,18.437 -34.379,28.129 -59.379,29.059 -12.934,-5.309 -23.203,-15.27 -30.781,-29.84 -7.5,-14.61 -11.25,-31.52 -11.25,-50.782 0,-30.546 7.269,-54.957 21.879,-73.277 14.679,-18.359 34.57,-27.93 59.679,-28.75 z" /><path
         id="path110"
         style="fill:#002a46;fill-opacity:1;fill-rule:nonzero;stroke:none"
         d="m 507.73,431.84 v 99.058 c 0,12.891 -0.742,24.454 -2.179,34.692 -1.492,10.308 -4.071,22.07 -7.821,35.308 h 57.821 v -42.5 l 37.027,41.723 c 11.012,3.938 21.602,5.93 31.723,5.93 8.32,0 15.39,-1.641 21.25,-4.84 l -9.692,-51.41 -2.187,1.57 c -8.981,6.559 -19.613,9.84 -31.871,9.84 -9.071,0 -20.942,-3.359 -35.629,-10 l -10.621,-4.84 V 431.84 c 0,-18.559 0.699,-32.93 2.179,-43.129 1.571,-10.231 4.258,-19.141 8.129,-26.723 H 497.73 c 3.75,7.274 6.329,16.102 7.821,26.41 1.437,10.192 2.179,24.692 2.179,43.442 z" /><path
         id="path112"
         style="fill:#002a46;fill-opacity:1;fill-rule:nonzero;stroke:none"
         d="m 731.949,356.68 c -18.75,0 -32.461,5.55 -41.09,16.718 -8.558,11.133 -12.808,28.942 -12.808,53.442 v 141.09 h -33.75 l 81.25,85.621 h 0.148 v -52.653 h 55.629 V 567.93 H 725.699 V 446.84 c 0,-16.18 2.742,-28.25 8.281,-36.25 5.508,-7.93 13.75,-11.879 24.692,-11.879 6.758,0 12.969,0.777 18.598,2.34 5.621,1.648 12.378,4.539 20.308,8.597 l -18.906,-45.937 c -8.363,-2.691 -15.621,-4.531 -21.871,-5.473 -6.25,-1.008 -14.531,-1.558 -24.852,-1.558 z" /><path
         id="path114"
         style="fill:#002a46;fill-opacity:1;fill-rule:nonzero;stroke:none"
         d="m 909.18,356.68 c -30.121,0 -55.231,11.129 -75.309,33.441 -20.121,22.379 -30.16,50.469 -30.16,84.219 0,37.691 11.129,69.058 33.437,94.058 22.383,25.082 50.352,37.653 83.903,37.653 30.32,0 55.469,-11.211 75.469,-33.59 20,-22.422 30,-50.43 30,-84.063 0,-37.808 -11.17,-69.218 -33.43,-94.218 -22.192,-25 -50.16,-37.5 -83.91,-37.5 z m 25.781,33.441 c 12.809,5.391 22.969,15.309 30.469,29.68 7.582,14.461 11.41,31.41 11.41,50.789 0,30.39 -7.352,54.762 -22.039,73.121 -14.602,18.437 -34.371,28.129 -59.371,29.059 -12.93,-5.309 -23.2,-15.27 -30.782,-29.84 -7.5,-14.61 -11.25,-31.52 -11.25,-50.782 0,-30.546 7.262,-54.957 21.872,-73.277 14.691,-18.359 34.57,-27.93 59.691,-28.75 z" /><path
         id="path116"
         style="fill:#002a46;fill-opacity:1;fill-rule:nonzero;stroke:none"
         d="m 1070.74,431.84 v 189.058 c 0,15.512 -0.74,28.364 -2.19,38.59 -1.48,10.313 -4.14,20.711 -7.96,31.25 l 34.06,6.723 34.06,7.027 c -3.75,-10.859 -6.41,-22.929 -7.97,-36.25 -1.56,-13.359 -2.34,-31.476 -2.34,-54.367 V 431.84 c 0,-18.559 0.78,-32.93 2.34,-43.129 1.56,-10.231 4.22,-19.141 7.97,-26.723 h -68.12 c 3.82,7.274 6.48,16.102 7.96,26.41 1.45,10.192 2.19,24.692 2.19,43.442 z" /><path
         id="path118"
         style="fill:#002a46;fill-opacity:1;fill-rule:nonzero;stroke:none"
         d="m 1222.58,530.898 v -88.91 c 0,-13.75 3.16,-23.976 9.53,-30.617 6.33,-6.68 16.01,-10 29.06,-10 10.39,0 22.85,2.848 37.35,8.59 l 7.96,2.969 v 117.968 c 0,13.122 -0.74,24.762 -2.18,35 -1.49,10.192 -4.14,21.872 -7.97,35 h 68.12 c -3.75,-7.738 -6.4,-16.679 -7.97,-26.878 -1.56,-10.231 -2.34,-24.61 -2.34,-43.122 V 431.84 c 0,-18.559 0.78,-32.93 2.34,-43.129 1.57,-10.231 4.22,-19.141 7.97,-26.723 h -55.62 v 40.633 l -37.5,-40.781 c -13.67,-3.52 -23.91,-5.32 -30.78,-5.32 -21.57,0 -37.93,5.671 -49.07,17.031 -11.05,11.449 -16.56,28.129 -16.56,50 v 107.347 c 0,12.891 -0.78,24.454 -2.34,34.692 -1.49,10.308 -4.06,22.07 -7.81,35.308 h 68.12 c -3.87,-7.738 -6.56,-16.679 -8.12,-26.878 -1.49,-10.231 -2.19,-24.61 -2.19,-43.122 z" /><path
         id="path120"
         style="fill:#002a46;fill-opacity:1;fill-rule:nonzero;stroke:none"
         d="m 1392.46,361.988 c 24.14,45 44.06,84.141 59.69,117.5 12.19,25.391 25.15,54.774 38.9,88.133 -23.12,0 -41.25,-1.332 -54.37,-3.91 -13.05,-2.5 -23.36,-6.832 -30.94,-12.973 l 4.69,25 4.84,25.16 h 139.53 c -21.56,-45.937 -39.92,-85.589 -55,-118.91 l -38.59,-86.867 h 2.19 c 24.26,0 43.32,1.399 57.19,4.219 13.94,2.89 25.7,7.89 35.31,15 l -6.56,-26.25 -6.88,-26.102 z" /><path
         id="path122"
         style="fill:#002a46;fill-opacity:1;fill-rule:nonzero;stroke:none"
         d="m 1566.48,361.988 c 24.14,45 44.07,84.141 59.69,117.5 12.19,25.391 25.16,54.774 38.91,88.133 -23.13,0 -41.25,-1.332 -54.38,-3.91 -13.04,-2.5 -23.36,-6.832 -30.93,-12.973 l 4.68,25 4.85,25.16 h 139.53 c -21.56,-45.937 -39.92,-85.589 -55,-118.91 l -38.6,-86.867 h 2.19 c 24.26,0 43.32,1.399 57.19,4.219 13.94,2.89 25.7,7.89 35.31,15 l -6.56,-26.25 -6.88,-26.102 z" /><path
         id="path124"
         style="fill:#002a46;fill-opacity:1;fill-rule:nonzero;stroke:none"
         d="m 1767.54,431.84 v 99.058 c 0,12.891 -0.78,24.454 -2.34,34.692 -1.49,10.308 -4.07,22.07 -7.82,35.308 h 68.13 c -3.87,-7.738 -6.56,-16.679 -8.13,-26.878 -1.48,-10.231 -2.18,-24.61 -2.18,-43.122 V 431.84 c 0,-18.559 0.7,-32.93 2.18,-43.129 1.57,-10.231 4.26,-19.141 8.13,-26.723 h -68.13 c 3.75,7.274 6.33,16.102 7.82,26.41 1.56,10.192 2.34,24.692 2.34,43.442 z m 22.5,268.75 c 8.94,0 16.56,-3.602 22.81,-10.789 6.25,-7.18 9.38,-16.012 9.38,-26.403 0,-10.308 -3.13,-19.058 -9.38,-26.25 -6.25,-7.109 -13.87,-10.628 -22.81,-10.628 -8.87,0 -16.41,3.519 -22.66,10.628 -6.25,7.192 -9.37,15.942 -9.37,26.25 0,10.391 3.12,19.223 9.37,26.403 6.25,7.187 13.79,10.789 22.66,10.789 z" /><path
         id="path126"
         style="fill:#002a46;fill-opacity:1;fill-rule:nonzero;stroke:none"
         d="m 2281.99,382.93 c -19.49,-10 -36.68,-16.879 -51.56,-20.629 -14.92,-3.75 -32.58,-5.621 -52.97,-5.621 -49.18,0 -90.16,16.09 -122.97,48.281 -32.73,32.269 -49.06,72.738 -49.06,121.41 0,53.117 17.34,97.219 52.03,132.34 34.77,35.199 78.32,52.809 130.63,52.809 16.44,0 31.6,-1.211 45.46,-3.59 13.83,-2.418 28.13,-6.371 42.82,-11.879 V 639.02 c -13.36,10 -28.13,17.582 -44.38,22.82 -16.17,5.308 -32.77,7.961 -49.84,7.961 -34.3,0 -62.81,-12.922 -85.63,-38.75 -22.81,-25.742 -34.22,-57.961 -34.22,-96.711 0,-39.07 10.71,-71.531 32.19,-97.352 21.45,-25.738 48.32,-38.59 80.63,-38.59 21.64,0 40.86,3.122 57.65,9.372 16.76,6.332 34.07,16.921 51.88,31.718 z" /><path
         id="path128"
         style="fill:#002a46;fill-opacity:1;fill-rule:nonzero;stroke:none"
         d="m 2411.25,356.68 c -30.12,0 -55.23,11.129 -75.31,33.441 -20.12,22.379 -30.16,50.469 -30.16,84.219 0,37.691 11.13,69.058 33.44,94.058 22.38,25.082 50.35,37.653 83.9,37.653 30.32,0 55.47,-11.211 75.47,-33.59 20,-22.422 30,-50.43 30,-84.063 0,-37.808 -11.17,-69.218 -33.43,-94.218 -22.19,-25 -50.16,-37.5 -83.91,-37.5 z m 25.78,33.441 c 12.81,5.391 22.97,15.309 30.47,29.68 7.58,14.461 11.41,31.41 11.41,50.789 0,30.39 -7.35,54.762 -22.03,73.121 -14.61,18.437 -34.38,28.129 -59.38,29.059 -12.93,-5.309 -23.2,-15.27 -30.78,-29.84 -7.5,-14.61 -11.25,-31.52 -11.25,-50.782 0,-30.546 7.26,-54.957 21.87,-73.277 14.69,-18.359 34.57,-27.93 59.69,-28.75 z" /><path
         id="path130"
         style="fill:#002a46;fill-opacity:1;fill-rule:nonzero;stroke:none"
         d="m 2572.93,431.84 v 99.058 c 0,13.122 -0.74,24.762 -2.19,35 -1.48,10.192 -4.06,21.872 -7.81,35 h 57.66 V 559.34 l 36.4,41.711 c 12.27,3.328 22.5,5 30.63,5 21.76,0 38.28,-6.789 49.53,-20.313 11.25,-13.547 16.87,-33.277 16.87,-59.218 v -94.68 c 0,-19.93 0.63,-34.961 1.88,-45.16 1.25,-10.231 3.48,-18.442 6.72,-24.692 h -66.41 c 3.83,7.274 6.49,16.024 7.97,26.25 1.44,10.313 2.19,24.852 2.19,43.602 v 88.121 c 0,13.949 -3.25,24.301 -9.69,31.09 -6.48,6.758 -16.37,10.16 -29.69,10.16 -9.06,0 -20.94,-3.359 -35.62,-10 l -10.78,-4.84 V 431.84 c 0,-18.559 0.78,-32.93 2.34,-43.129 1.56,-10.231 4.26,-19.141 8.12,-26.723 h -68.12 c 3.75,7.274 6.33,16.102 7.81,26.41 1.45,10.192 2.19,24.692 2.19,43.442 z" /><path
         id="path132"
         style="fill:#002a46;fill-opacity:1;fill-rule:nonzero;stroke:none"
         d="m 2923.44,549.801 c -6.8,7.898 -13.71,13.679 -20.78,17.347 -7,3.75 -14.81,5.622 -23.44,5.622 -9.49,0 -17.42,-2.5 -23.75,-7.5 -6.25,-5 -9.38,-11.25 -9.38,-18.75 0,-7.301 2.11,-13.86 6.41,-19.68 4.06,-5.942 11.88,-13.36 23.44,-22.192 19.45,-15.117 33.16,-28.398 41.09,-39.847 7.81,-11.25 11.72,-23.512 11.72,-36.711 0,-20.551 -7.15,-37.578 -21.41,-51.102 -14.29,-13.547 -32.3,-20.308 -54.06,-20.308 -11.8,0 -21.87,0.742 -30.31,2.191 -8.44,1.359 -18.83,3.981 -31.09,7.969 v 56.871 c 9.14,-11.172 18.32,-19.449 27.5,-24.84 9.25,-5.43 18.74,-8.133 28.43,-8.133 9.38,0 17.11,2.742 23.28,8.282 6.14,5.511 9.22,12.429 9.22,20.781 0,6.758 -2.46,13.289 -7.34,19.539 -4.92,6.129 -14.3,14.57 -28.13,25.308 -17.61,13.633 -30,25.942 -37.18,36.872 -7.11,10.82 -10.63,22.89 -10.63,36.25 0,19.57 7.81,35.82 23.44,48.75 15.62,13.011 35.19,19.531 58.75,19.531 8.63,0 16.09,-0.742 22.34,-2.18 6.33,-1.492 13.64,-4.07 21.88,-7.82 z" /><path
         id="path134"
         style="fill:#002a46;fill-opacity:1;fill-rule:nonzero;stroke:none"
         d="m 3015.55,530.898 v -88.91 c 0,-13.75 3.16,-23.976 9.53,-30.617 6.33,-6.68 16.01,-10 29.06,-10 10.39,0 22.85,2.848 37.34,8.59 l 7.97,2.969 v 117.968 c 0,13.122 -0.74,24.762 -2.18,35 -1.49,10.192 -4.15,21.872 -7.97,35 h 68.12 c -3.75,-7.738 -6.4,-16.679 -7.97,-26.878 -1.56,-10.231 -2.34,-24.61 -2.34,-43.122 V 431.84 c 0,-18.559 0.78,-32.93 2.34,-43.129 1.57,-10.231 4.22,-19.141 7.97,-26.723 h -55.62 v 40.633 l -37.5,-40.781 c -13.68,-3.52 -23.91,-5.32 -30.78,-5.32 -21.57,0 -37.93,5.671 -49.07,17.031 -11.05,11.449 -16.56,28.129 -16.56,50 v 107.347 c 0,12.891 -0.78,24.454 -2.34,34.692 -1.49,10.308 -4.07,22.07 -7.82,35.308 h 68.13 c -3.87,-7.738 -6.56,-16.679 -8.13,-26.878 -1.48,-10.231 -2.18,-24.61 -2.18,-43.122 z" /><path
         id="path136"
         style="fill:#002a46;fill-opacity:1;fill-rule:nonzero;stroke:none"
         d="m 3212.62,431.84 v 189.058 c 0,15.512 -0.74,28.364 -2.19,38.59 -1.48,10.313 -4.14,20.711 -7.97,31.25 l 34.06,6.723 34.07,7.027 c -3.75,-10.859 -6.41,-22.929 -7.97,-36.25 -1.57,-13.359 -2.35,-31.476 -2.35,-54.367 V 431.84 c 0,-18.559 0.78,-32.93 2.35,-43.129 1.56,-10.231 4.22,-19.141 7.97,-26.723 h -68.13 c 3.83,7.274 6.49,16.102 7.97,26.41 1.45,10.192 2.19,24.692 2.19,43.442 z" /><path
         id="path138"
         style="fill:#002a46;fill-opacity:1;fill-rule:nonzero;stroke:none"
         d="m 3380.12,356.68 c -18.75,0 -32.46,5.55 -41.1,16.718 -8.55,11.133 -12.81,28.942 -12.81,53.442 v 141.09 h -33.75 l 81.25,85.621 h 0.16 v -52.653 h 55.62 V 567.93 h -55.62 V 446.84 c 0,-16.18 2.73,-28.25 8.28,-36.25 5.51,-7.93 13.75,-11.879 24.69,-11.879 6.75,0 12.96,0.777 18.59,2.34 5.62,1.648 12.38,4.539 20.31,8.597 l -18.9,-45.937 c -8.36,-2.691 -15.63,-4.531 -21.88,-5.473 -6.25,-1.008 -14.53,-1.558 -24.84,-1.558 z" /><path
         id="path140"
         style="fill:#002a46;fill-opacity:1;fill-rule:nonzero;stroke:none"
         d="m 3557.34,356.68 c -30.11,0 -55.23,11.129 -75.31,33.441 -20.12,22.379 -30.15,50.469 -30.15,84.219 0,37.691 11.13,69.058 33.43,94.058 22.39,25.082 50.35,37.653 83.91,37.653 30.31,0 55.47,-11.211 75.47,-33.59 20,-22.422 30,-50.43 30,-84.063 0,-37.808 -11.17,-69.218 -33.44,-94.218 -22.19,-25 -50.16,-37.5 -83.91,-37.5 z m 25.78,33.441 c 12.82,5.391 22.97,15.309 30.47,29.68 7.58,14.461 11.41,31.41 11.41,50.789 0,30.39 -7.34,54.762 -22.03,73.121 -14.61,18.437 -34.38,28.129 -59.38,29.059 -12.93,-5.309 -23.2,-15.27 -30.78,-29.84 -7.5,-14.61 -11.25,-31.52 -11.25,-50.782 0,-30.546 7.27,-54.957 21.88,-73.277 14.68,-18.359 34.57,-27.93 59.68,-28.75 z" /><path
         id="path142"
         style="fill:#002a46;fill-opacity:1;fill-rule:nonzero;stroke:none"
         d="m 3720.12,431.84 v 99.058 c 0,12.891 -0.74,24.454 -2.19,34.692 -1.48,10.308 -4.06,22.07 -7.81,35.308 h 57.81 v -42.5 l 37.03,41.723 c 11.02,3.938 21.6,5.93 31.72,5.93 8.32,0 15.39,-1.641 21.25,-4.84 l -9.69,-51.41 -2.19,1.57 c -8.98,6.559 -19.6,9.84 -31.87,9.84 -9.06,0 -20.94,-3.359 -35.63,-10 l -10.62,-4.84 V 431.84 c 0,-18.559 0.7,-32.93 2.19,-43.129 1.56,-10.231 4.26,-19.141 8.12,-26.723 h -68.12 c 3.75,7.274 6.33,16.102 7.81,26.41 1.45,10.192 2.19,24.692 2.19,43.442 z" /><path
         id="path144"
         style="fill:#002a46;fill-opacity:1;fill-rule:nonzero;stroke:none"
         d="m 3884.84,431.84 v 99.058 c 0,12.891 -0.78,24.454 -2.34,34.692 -1.48,10.308 -4.06,22.07 -7.81,35.308 h 68.12 c -3.86,-7.738 -6.56,-16.679 -8.12,-26.878 -1.49,-10.231 -2.19,-24.61 -2.19,-43.122 V 431.84 c 0,-18.559 0.7,-32.93 2.19,-43.129 1.56,-10.231 4.26,-19.141 8.12,-26.723 h -68.12 c 3.75,7.274 6.33,16.102 7.81,26.41 1.56,10.192 2.34,24.692 2.34,43.442 z m 22.5,268.75 c 8.95,0 16.57,-3.602 22.82,-10.789 6.25,-7.18 9.37,-16.012 9.37,-26.403 0,-10.308 -3.12,-19.058 -9.37,-26.25 -6.25,-7.109 -13.87,-10.628 -22.82,-10.628 -8.86,0 -16.4,3.519 -22.65,10.628 -6.25,7.192 -9.38,15.942 -9.38,26.25 0,10.391 3.13,19.223 9.38,26.403 6.25,7.187 13.79,10.789 22.65,10.789 z" /><path
         id="path146"
         style="fill:#002a46;fill-opacity:1;fill-rule:nonzero;stroke:none"
         d="m 4048.24,356.68 c -23.36,0 -41.33,5 -53.9,15 -12.62,10 -18.91,24.218 -18.91,42.66 0,12.262 4.41,23.82 13.28,34.68 8.95,10.82 20.94,19.378 35.94,25.628 l 70.31,29.063 v 21.719 c 0,13.011 -4.02,23.359 -12.03,31.09 -8.05,7.699 -18.87,11.57 -32.5,11.57 -8.75,0 -17.27,-1.531 -25.47,-4.539 -8.24,-3.039 -17.26,-7.961 -27.03,-14.84 l 13.12,45.937 c 9.38,3.942 18.44,6.801 27.19,8.59 8.83,1.883 17.81,2.813 26.88,2.813 25.82,0 45.19,-6.711 58.12,-20.153 13.01,-13.437 19.53,-33.597 19.53,-60.468 v -93.59 c 0,-19.93 0.55,-34.961 1.72,-45.16 1.25,-10.231 3.48,-18.442 6.72,-24.692 h -56.25 v 22.813 l -37.03,-27.653 z m 46.72,41.558 v 65.782 h -61.41 c -1.48,0 -3.35,-4.489 -5.62,-13.43 -2.31,-8.871 -3.44,-16.25 -3.44,-22.192 0,-11.367 3.63,-19.847 10.94,-25.468 7.38,-5.629 18.36,-8.442 32.97,-8.442 9.06,0 17.81,1.25 26.25,3.75 z" /><path
         id="path148"
         style="fill:#002a46;fill-opacity:1;fill-rule:nonzero;stroke:none"
         d="m 477.852,64.6484 c 0,-12.5 0.507,-23.0468 1.558,-31.5586 1.02,-8.4414 2.86,-17.1484 5.469,-26.10152 H 444.41 c 2.5,8.83202 4.219,17.50002 5.16,25.94142 1.02,8.4414 1.559,18.9805 1.559,31.7187 V 176.68 c -4.488,5.82 -8.277,10.66 -11.399,14.531 -7.109,8.437 -11.718,13.32 -13.91,14.687 h 47.192 c 5.508,-10 10.777,-18.828 15.777,-26.41 5.082,-7.609 11.289,-16.09 18.59,-25.468 L 583.16,55.4297 v 92.8083 c 0,12.5 -0.539,22.973 -1.558,31.41 -1.051,8.442 -2.891,17.192 -5.473,26.25 h 40.473 c -2.5,-8.867 -4.301,-17.578 -5.313,-26.097 -1.059,-8.43 -1.559,-18.981 -1.559,-31.563 V 54.8008 c 0,-9.8008 0.622,-19.332 1.872,-28.5899 1.328,-9.1796 2.968,-15.5898 4.847,-19.22262 H 575.82 C 575.391,9.87891 572.93,15 568.48,22.3008 c -4.378,7.2695 -9.609,14.7695 -15.628,22.5 l -75,97.9692 z M 681.91,3.87109 c -13.43,0 -23.82,2.89063 -31.09,8.58981 -7.3,5.8204 -10.941,14.0586 -10.941,24.6875 0,7.1914 2.543,13.9024 7.66,20.1524 5.082,6.25 12.031,11.1797 20.781,14.8476 l 40.629,16.7227 V 101.52 c 0,7.5 -2.347,13.441 -7.039,17.82 -4.68,4.449 -10.93,6.711 -18.75,6.711 -5.109,0 -10.07,-0.891 -14.84,-2.653 -4.691,-1.679 -9.84,-4.488 -15.468,-8.437 l 7.5,26.41 c 5.386,2.258 10.668,3.938 15.777,5 5.082,1.129 10.242,1.719 15.473,1.719 14.878,0 26.097,-3.91 33.597,-11.719 7.5,-7.82 11.25,-19.461 11.25,-34.851 V 47.3008 c 0,-11.4805 0.352,-20.1524 1.09,-26.0899 0.699,-5.8593 2.031,-10.5898 3.91,-14.22262 h -32.5 V 20.2695 L 687.539,4.17969 Z M 708.949,27.9297 V 65.8984 H 673.32 c -0.859,0 -1.949,-2.5781 -3.281,-7.6601 -1.25,-5.1172 -1.879,-9.4492 -1.879,-12.9688 0,-6.4804 2.07,-11.3593 6.25,-14.6797 4.262,-3.25 10.668,-4.8515 19.219,-4.8515 5.199,0 10.199,0.7109 15,2.1914 z" /><path
         id="path150"
         style="fill:#002a46;fill-opacity:1;fill-rule:nonzero;stroke:none"
         d="M 887.27,125.898 V 47.3008 c 0,-10.7422 0.39,-19.0625 1.25,-25 0.929,-5.8516 2.5,-10.9297 4.679,-15.31252 h -39.371 c 2.262,4.26172 3.832,9.30082 4.692,15.16012 0.82,5.9414 1.25,14.3008 1.25,25.1524 v 78.5972 h -15 v 0.473 l 10,18.59 h 5 v 11.09 c 0,15.629 4.058,27.82 12.179,36.57 8.211,8.75 19.77,13.117 34.692,13.117 5.078,0 9.609,-0.386 13.589,-1.09 4.071,-0.628 8.168,-1.679 12.348,-3.128 l -6.406,-27.34 c -3.551,4.058 -6.953,7.031 -10.152,8.91 -3.25,1.949 -6.571,2.961 -10,2.961 -6.372,0 -11.098,-1.949 -14.219,-5.781 -3.051,-3.86 -4.531,-9.68 -4.531,-17.5 v -17.809 h 27.652 v -19.063 z" /><path
         id="path152"
         style="fill:#002a46;fill-opacity:1;fill-rule:nonzero;stroke:none"
         d="m 934.18,47.3008 v 57.3472 c 0,7.383 -0.469,14.063 -1.41,20 -0.86,5.942 -2.34,12.692 -4.532,20.313 H 961.68 V 120.43 l 21.41,24.218 c 6.32,2.262 12.422,3.442 18.28,3.442 4.88,0 8.98,-0.942 12.34,-2.82 l -5.62,-29.68 -1.25,0.781 c -5.12,3.828 -11.25,5.777 -18.442,5.777 -5.238,0 -12.027,-1.949 -20.468,-5.777 l -6.25,-2.82 V 47.3008 c 0,-10.7422 0.39,-19.0625 1.25,-25 0.941,-5.8516 2.5,-10.9297 4.691,-15.31252 h -39.383 c 2.192,4.26172 3.75,9.38282 4.692,15.31252 0.82,5.8203 1.25,14.1484 1.25,25 z" /><path
         id="path154"
         style="fill:#002a46;fill-opacity:1;fill-rule:nonzero;stroke:none"
         d="m 1079.69,3.87109 c -17.42,0 -31.96,6.43751 -43.6,19.36721 -11.56,12.8906 -17.34,29.1015 -17.34,48.6015 0,21.8711 6.45,40.0392 19.37,54.5312 12.9,14.449 29.07,21.719 48.44,21.719 17.5,0 32.03,-6.531 43.6,-19.539 11.56,-12.93 17.34,-29.1408 17.34,-48.5901 0,-21.8007 -6.48,-39.9218 -19.38,-54.3711 -12.81,-14.5 -28.98,-21.71871 -48.43,-21.71871 z m 14.84,19.36721 c 7.5,3.1328 13.44,8.832 17.81,17.1914 4.38,8.3203 6.57,18.0508 6.57,29.2187 0,17.5821 -4.3,31.7226 -12.82,42.3396 -8.43,10.633 -19.92,16.172 -34.37,16.723 -7.42,-3.051 -13.28,-8.75 -17.66,-17.191 -4.37,-8.43 -6.56,-18.2387 -6.56,-29.3716 0,-17.6171 4.22,-31.7187 12.66,-42.3476 8.51,-10.5391 20,-16.0508 34.37,-16.5625 z" /><path
         id="path156"
         style="fill:#002a46;fill-opacity:1;fill-rule:nonzero;stroke:none"
         d="m 1173.24,47.3008 v 57.3472 c 0,7.5 -0.47,14.223 -1.4,20.153 -0.86,5.937 -2.35,12.66 -4.54,20.16 h 33.44 v -23.91 l 20.94,24.07 c 7.07,1.949 13.01,2.969 17.81,2.969 12.5,0 21.96,-3.988 28.44,-11.879 6.56,-7.813 9.84,-19.18 9.84,-34.063 V 47.3008 c 0,-11.4805 0.35,-20.1524 1.1,-26.0899 0.7,-5.8593 2.03,-10.5898 3.9,-14.22262 h -38.43 c 2.26,4.26172 3.82,9.30082 4.68,15.16012 0.82,5.9414 1.25,14.3008 1.25,25.1524 v 50.9375 c 0,8.0117 -1.87,13.9917 -5.62,17.9727 -3.75,3.949 -9.49,5.937 -17.19,5.937 -5.23,0 -12.03,-1.949 -20.47,-5.777 l -6.25,-2.82 V 47.3008 c 0,-10.7422 0.39,-19.0625 1.25,-25 0.94,-5.8516 2.5,-10.9297 4.69,-15.31252 h -39.38 c 2.19,4.26172 3.75,9.38282 4.69,15.31252 0.82,5.8203 1.25,14.1484 1.25,25 z" /><path
         id="path158"
         style="fill:#002a46;fill-opacity:1;fill-rule:nonzero;stroke:none"
         d="m 1346.45,3.87109 c -10.86,0 -18.75,3.19922 -23.75,9.67971 -4.93,6.4492 -7.35,16.7578 -7.35,30.9375 v 81.4097 h -19.53 l 47.03,49.532 v -30.469 h 32.19 v -19.063 h -32.19 V 56.0508 c 0,-9.3711 1.56,-16.3594 4.69,-20.9297 3.2,-4.6094 8.01,-6.8828 14.37,-6.8828 3.95,0 7.54,0.4726 10.79,1.4101 3.2,0.9414 7.1,2.543 11.71,4.8399 L 1373.48,8.08984 c -4.81,-1.64062 -9.03,-2.73828 -12.66,-3.28906 -3.55,-0.62109 -8.36,-0.92969 -14.37,-0.92969 z" /><path
         id="path160"
         style="fill:#002a46;fill-opacity:1;fill-rule:nonzero;stroke:none"
         d="m 1454.96,3.87109 c -18.98,0 -34.53,6.32811 -46.72,19.05861 -12.19,12.8086 -18.28,29.2187 -18.28,49.2187 0,21.7618 5.31,39.8396 15.94,54.2226 10.7,14.449 24.14,21.719 40.31,21.719 h 0.16 c 15.7,0 27.85,-5.469 36.4,-16.41 8.52,-10.942 12.82,-26.52 12.82,-46.7191 v -12.5 h -76.57 c 1.33,-12.5 5,-22.9296 10.94,-31.25 7.58,-10.4296 17.85,-15.6211 30.78,-15.6211 5.82,0 11.56,0.6993 17.19,2.1797 5.7,1.5703 10.86,3.75 15.47,6.5703 L 1482.46,7.92969 c -6.05,-1.64063 -10.9,-2.73047 -14.53,-3.28125 -3.67,-0.50781 -7.97,-0.77735 -12.97,-0.77735 z m 17.97,87.80861 c -0.12,11.9493 -2.34,21.1293 -6.72,27.5003 -4.37,6.332 -10.74,9.531 -19.06,9.531 h 0.15 c -9.18,0 -16.25,-3.91 -21.25,-11.723 -3.98,-6.25 -6.36,-14.687 -7.18,-25.3083 z" /><path
         id="path162"
         style="fill:#002a46;fill-opacity:1;fill-rule:nonzero;stroke:none"
         d="m 1523.32,47.3008 v 57.3472 c 0,7.383 -0.43,14.063 -1.25,20 -0.86,5.942 -2.34,12.692 -4.53,20.313 h 39.37 c -2.3,-4.371 -3.9,-9.531 -4.84,-15.473 -0.86,-5.937 -1.25,-14.218 -1.25,-24.84 V 47.3008 c 0,-10.7422 0.39,-19.0625 1.25,-25 0.94,-5.8516 2.54,-10.9297 4.84,-15.31252 h -39.37 c 2.19,4.26172 3.67,9.38282 4.53,15.31252 0.82,5.8203 1.25,14.1484 1.25,25 z m 13.13,155.3202 c 5.07,0 9.41,-2.109 12.96,-6.25 3.64,-4.18 5.47,-9.223 5.47,-15.16 0,-6.051 -1.83,-11.172 -5.47,-15.313 -3.55,-4.058 -7.89,-6.097 -12.96,-6.097 -5.24,0 -9.65,2.039 -13.29,6.097 -3.55,4.141 -5.31,9.262 -5.31,15.313 0,5.937 1.76,10.98 5.31,15.16 3.64,4.141 8.05,6.25 13.29,6.25 z" /><path
         id="path164"
         style="fill:#002a46;fill-opacity:1;fill-rule:nonzero;stroke:none"
         d="m 1586.72,47.3008 v 57.3472 c 0,7.383 -0.47,14.063 -1.41,20 -0.86,5.942 -2.34,12.692 -4.53,20.313 h 33.44 V 120.43 l 21.4,24.218 c 6.33,2.262 12.43,3.442 18.29,3.442 4.88,0 8.98,-0.942 12.34,-2.82 l -5.63,-29.68 -1.24,0.781 c -5.12,3.828 -11.26,5.777 -18.44,5.777 -5.24,0 -12.03,-1.949 -20.47,-5.777 l -6.25,-2.82 V 47.3008 c 0,-10.7422 0.39,-19.0625 1.25,-25 0.94,-5.8516 2.5,-10.9297 4.69,-15.31252 h -39.38 c 2.19,4.26172 3.75,9.38282 4.69,15.31252 0.82,5.8203 1.25,14.1484 1.25,25 z" /><path
         id="path166"
         style="fill:#002a46;fill-opacity:1;fill-rule:nonzero;stroke:none"
         d="m 1713.79,3.87109 c -13.44,0 -23.83,2.89063 -31.09,8.58981 -7.31,5.8204 -10.94,14.0586 -10.94,24.6875 0,7.1914 2.54,13.9024 7.65,20.1524 5.08,6.25 12.04,11.1797 20.79,14.8476 l 40.62,16.7227 V 101.52 c 0,7.5 -2.34,13.441 -7.03,17.82 -4.69,4.449 -10.94,6.711 -18.75,6.711 -5.12,0 -10.08,-0.891 -14.84,-2.653 -4.69,-1.679 -9.85,-4.488 -15.47,-8.437 l 7.5,26.41 c 5.39,2.258 10.66,3.938 15.78,5 5.08,1.129 10.23,1.719 15.47,1.719 14.88,0 26.09,-3.91 33.59,-11.719 7.5,-7.82 11.25,-19.461 11.25,-34.851 V 47.3008 c 0,-11.4805 0.35,-20.1524 1.09,-26.0899 0.71,-5.8593 2.04,-10.5898 3.91,-14.22262 h -32.5 V 20.2695 L 1719.41,4.17969 Z m 27.03,24.05861 v 37.9687 h -35.62 c -0.86,0 -1.96,-2.5781 -3.29,-7.6601 -1.25,-5.1172 -1.87,-9.4492 -1.87,-12.9688 0,-6.4804 2.07,-11.3593 6.25,-14.6797 4.26,-3.25 10.66,-4.8515 19.22,-4.8515 5.19,0 10.19,0.7109 15,2.1914 z" /><path
         id="path168"
         style="fill:#002a46;fill-opacity:1;fill-rule:nonzero;stroke:none"
         d="m 1932.58,3.87109 c -16.99,0 -30.47,5.3086 -40.47,15.92971 -9.92,10.7109 -14.84,25.1992 -14.84,43.4375 0,24.2617 6.87,44.4607 20.62,60.6327 13.75,16.129 30.98,24.219 51.72,24.219 5.62,0 10.82,-0.789 15.62,-2.352 v 10.782 c 0,8.949 -0.43,16.41 -1.25,22.351 -0.86,5.93 -2.34,11.949 -4.53,18.117 l 19.22,3.91 19.53,4.063 c -2.11,-5.621 -3.55,-12.301 -4.37,-20 -0.74,-7.731 -1.1,-18.551 -1.1,-32.5 V 47.3008 c 0,-10.7422 0.39,-19.0625 1.25,-25 0.94,-5.8516 2.54,-10.9297 4.85,-15.31252 h -33.6 V 25.7383 l -16.4,-18.43752 c -6.37,-2.26172 -11.8,-3.42969 -16.25,-3.42969 z m 7.65,124.67991 c -12.3,0 -21.17,-4.172 -26.56,-12.5 -5.43,-8.352 -8.12,-21.9924 -8.12,-40.9299 0,-15 3.28,-26.9609 9.84,-35.7813 6.56,-8.871 15.39,-13.289 26.56,-13.289 5.39,0 10.47,0.9805 15.16,2.9687 l 8.12,4.3789 V 120.43 c -6.48,5.39 -14.8,8.121 -25,8.121 z" /><path
         id="path170"
         style="fill:#002a46;fill-opacity:1;fill-rule:nonzero;stroke:none"
         d="m 2077.54,3.87109 c -17.42,0 -31.95,6.43751 -43.59,19.36721 -11.57,12.8906 -17.35,29.1015 -17.35,48.6015 0,21.8711 6.45,40.0392 19.38,54.5312 12.89,14.449 29.06,21.719 48.43,21.719 17.5,0 32.04,-6.531 43.6,-19.539 11.56,-12.93 17.34,-29.1408 17.34,-48.5901 0,-21.8007 -6.48,-39.9218 -19.37,-54.3711 -12.82,-14.5 -28.99,-21.71871 -48.44,-21.71871 z m 14.84,19.36721 c 7.5,3.1328 13.44,8.832 17.82,17.1914 4.37,8.3203 6.56,18.0508 6.56,29.2187 0,17.5821 -4.3,31.7226 -12.81,42.3396 -8.44,10.633 -19.93,16.172 -34.38,16.723 -7.42,-3.051 -13.28,-8.75 -17.66,-17.191 -4.37,-8.43 -6.56,-18.2387 -6.56,-29.3716 0,-17.6171 4.22,-31.7187 12.66,-42.3476 8.51,-10.5391 20,-16.0508 34.37,-16.5625 z" /><path
         id="path172"
         style="fill:#002a46;fill-opacity:1;fill-rule:nonzero;stroke:none"
         d="m 2335.82,7.92969 c -6.25,-1.64063 -11.33,-2.73047 -15.16,-3.28125 -3.86,-0.50781 -8.39,-0.77735 -13.59,-0.77735 -18.36,0 -33.59,6.43751 -45.78,19.36721 -12.11,12.8906 -18.13,29.0625 -18.13,48.4414 0,21.8711 6.72,40.0393 20.16,54.5313 13.44,14.57 30.23,21.879 50.47,21.879 5.39,0 10.16,-0.238 14.22,-0.629 4.06,-0.43 9.61,-1.25 16.72,-2.5 l -1.41,-31.871 c -5.12,5.5 -10.16,9.449 -15.16,11.871 -5,2.5 -10.54,3.75 -16.56,3.75 -12.19,0 -21.87,-4.609 -29.06,-13.75 -7.11,-9.18 -10.63,-21.5626 -10.63,-37.1915 0,-16.0507 3.75,-28.75 11.25,-38.1211 7.58,-9.3789 17.82,-14.0586 30.63,-14.0586 4.45,0 9.06,0.6211 13.75,1.8711 4.76,1.25 11.17,3.5196 19.22,6.8789 z" /><path
         id="path174"
         style="fill:#002a46;fill-opacity:1;fill-rule:nonzero;stroke:none"
         d="m 2422.85,3.87109 c -17.42,0 -31.95,6.43751 -43.59,19.36721 -11.56,12.8906 -17.35,29.1015 -17.35,48.6015 0,21.8711 6.45,40.0392 19.38,54.5312 12.89,14.449 29.06,21.719 48.44,21.719 17.5,0 32.03,-6.531 43.59,-19.539 11.56,-12.93 17.34,-29.1408 17.34,-48.5901 0,-21.8007 -6.48,-39.9218 -19.37,-54.3711 -12.81,-14.5 -28.99,-21.71871 -48.44,-21.71871 z m 14.85,19.36721 c 7.5,3.1328 13.43,8.832 17.81,17.1914 4.37,8.3203 6.56,18.0508 6.56,29.2187 0,17.5821 -4.3,31.7226 -12.81,42.3396 -8.44,10.633 -19.92,16.172 -34.38,16.723 -7.42,-3.051 -13.28,-8.75 -17.65,-17.191 -4.38,-8.43 -6.57,-18.2387 -6.57,-29.3716 0,-17.6171 4.22,-31.7187 12.66,-42.3476 8.52,-10.5391 20,-16.0508 34.38,-16.5625 z" /><path
         id="path176"
         style="fill:#002a46;fill-opacity:1;fill-rule:nonzero;stroke:none"
         d="m 2516.41,47.3008 v 57.3472 c 0,7.5 -0.47,14.223 -1.41,20.153 -0.86,5.937 -2.34,12.66 -4.53,20.16 h 33.44 v -23.91 l 20.93,24.07 c 7.07,1.949 13.01,2.969 17.82,2.969 12.5,0 21.95,-3.988 28.43,-11.879 6.57,-7.813 9.85,-19.18 9.85,-34.063 V 47.3008 c 0,-11.4805 0.35,-20.1524 1.09,-26.0899 0.7,-5.8593 2.03,-10.5898 3.91,-14.22262 h -38.44 c 2.27,4.26172 3.83,9.30082 4.69,15.16012 0.82,5.9414 1.25,14.3008 1.25,25.1524 v 50.9375 c 0,8.0117 -1.88,13.9917 -5.63,17.9727 -3.75,3.949 -9.49,5.937 -17.19,5.937 -5.23,0 -12.03,-1.949 -20.46,-5.777 l -6.25,-2.82 V 47.3008 c 0,-10.7422 0.39,-19.0625 1.25,-25 0.93,-5.8516 2.5,-10.9297 4.68,-15.31252 h -39.37 c 2.19,4.26172 3.75,9.38282 4.69,15.31252 0.82,5.8203 1.25,14.1484 1.25,25 z" /><path
         id="path178"
         style="fill:#002a46;fill-opacity:1;fill-rule:nonzero;stroke:none"
         d="M 2654.61,47.3008 V 156.52 c 0,8.949 -0.43,16.41 -1.25,22.351 -0.86,5.93 -2.34,11.949 -4.53,18.117 l 19.69,3.91 19.53,4.063 c -2.19,-6.25 -3.75,-13.242 -4.69,-20.941 -0.86,-7.731 -1.25,-18.239 -1.25,-31.559 v -31.41 l 20.94,24.07 c 7.18,1.949 13.12,2.969 17.81,2.969 12.5,0 21.95,-3.988 28.44,-11.879 6.56,-7.813 9.84,-19.18 9.84,-34.063 V 47.3008 c 0,-11.4805 0.35,-20.1524 1.09,-26.0899 0.71,-5.8593 2.04,-10.5898 3.91,-14.22262 h -38.28 c 2.19,4.26172 3.67,9.30082 4.53,15.16012 0.82,5.9414 1.25,14.3008 1.25,25.1524 v 50.9375 c 0,8.0117 -1.87,13.9917 -5.62,17.9727 -3.68,3.949 -9.34,5.937 -17.04,5.937 -5.31,0 -12.18,-1.949 -20.62,-5.777 l -6.25,-2.82 V 47.3008 c 0,-10.7422 0.39,-19.0625 1.25,-25 0.94,-5.8516 2.5,-10.9297 4.69,-15.31252 h -39.22 c 2.19,4.26172 3.67,9.38282 4.53,15.31252 0.82,5.8203 1.25,14.1484 1.25,25 z" /><path
         id="path180"
         style="fill:#002a46;fill-opacity:1;fill-rule:nonzero;stroke:none"
         d="m 2850.94,3.87109 c -18.99,0 -34.53,6.32811 -46.72,19.05861 -12.19,12.8086 -18.28,29.2187 -18.28,49.2187 0,21.7618 5.31,39.8396 15.94,54.2226 10.7,14.449 24.14,21.719 40.31,21.719 h 0.15 c 15.71,0 27.86,-5.469 36.41,-16.41 8.52,-10.942 12.81,-26.52 12.81,-46.7191 v -12.5 H 2815 c 1.33,-12.5 5,-22.9296 10.94,-31.25 7.58,-10.4296 17.85,-15.6211 30.78,-15.6211 5.82,0 11.56,0.6993 17.19,2.1797 5.7,1.5703 10.86,3.75 15.47,6.5703 L 2878.44,7.92969 c -6.06,-1.64063 -10.9,-2.73047 -14.53,-3.28125 -3.68,-0.50781 -7.97,-0.77735 -12.97,-0.77735 z m 17.97,87.80861 c -0.12,11.9493 -2.35,21.1293 -6.72,27.5003 -4.38,6.332 -10.74,9.531 -19.07,9.531 h 0.16 c -9.18,0 -16.25,-3.91 -21.25,-11.723 -3.98,-6.25 -6.37,-14.687 -7.19,-25.3083 z" /><path
         id="path182"
         style="fill:#002a46;fill-opacity:1;fill-rule:nonzero;stroke:none"
         d="m 3002.58,7.92969 c -6.25,-1.64063 -11.33,-2.73047 -15.16,-3.28125 -3.87,-0.50781 -8.4,-0.77735 -13.59,-0.77735 -18.36,0 -33.6,6.43751 -45.78,19.36721 -12.11,12.8906 -18.13,29.0625 -18.13,48.4414 0,21.8711 6.72,40.0393 20.16,54.5313 13.44,14.57 30.23,21.879 50.47,21.879 5.39,0 10.15,-0.238 14.22,-0.629 4.06,-0.43 9.61,-1.25 16.71,-2.5 l -1.4,-31.871 c -5.12,5.5 -10.16,9.449 -15.16,11.871 -5,2.5 -10.54,3.75 -16.56,3.75 -12.19,0 -21.88,-4.609 -29.06,-13.75 -7.11,-9.18 -10.63,-21.5626 -10.63,-37.1915 0,-16.0507 3.75,-28.75 11.25,-38.1211 7.58,-9.3789 17.81,-14.0586 30.63,-14.0586 4.45,0 9.06,0.6211 13.75,1.8711 4.76,1.25 11.17,3.5196 19.22,6.8789 z" /><path
         id="path184"
         style="fill:#002a46;fill-opacity:1;fill-rule:nonzero;stroke:none"
         d="m 3039.14,47.3008 v 57.3472 c 0,7.383 -0.43,14.063 -1.25,20 -0.86,5.942 -2.34,12.692 -4.53,20.313 h 39.37 c -2.3,-4.371 -3.9,-9.531 -4.84,-15.473 -0.86,-5.937 -1.25,-14.218 -1.25,-24.84 V 47.3008 c 0,-10.7422 0.39,-19.0625 1.25,-25 0.94,-5.8516 2.54,-10.9297 4.84,-15.31252 h -39.37 c 2.19,4.26172 3.67,9.38282 4.53,15.31252 0.82,5.8203 1.25,14.1484 1.25,25 z m 13.13,155.3202 c 5.07,0 9.41,-2.109 12.96,-6.25 3.64,-4.18 5.47,-9.223 5.47,-15.16 0,-6.051 -1.83,-11.172 -5.47,-15.313 -3.55,-4.058 -7.89,-6.097 -12.96,-6.097 -5.24,0 -9.65,2.039 -13.29,6.097 -3.55,4.141 -5.31,9.262 -5.31,15.313 0,5.937 1.76,10.98 5.31,15.16 3.64,4.141 8.05,6.25 13.29,6.25 z" /><path
         id="path186"
         style="fill:#002a46;fill-opacity:1;fill-rule:nonzero;stroke:none"
         d="m 3099.88,47.3008 v 57.3472 c 0,7.383 -0.43,14.063 -1.25,20 -0.86,5.942 -2.34,12.692 -4.53,20.313 h 33.44 v -26.563 l 17.19,21.403 6.25,3.597 c 5.93,3.122 12.69,4.692 20.31,4.692 10.94,0 19.26,-3.442 25,-10.32 4.37,-5.11 7.03,-11.989 7.97,-20.622 l 20.31,22.973 5.63,3.117 c 5.93,3.211 12.22,4.852 18.9,4.852 10.7,0 18.83,-3.399 24.38,-10.16 5.62,-6.68 8.43,-16.41 8.43,-29.219 V 47.3008 c 0,-11.6797 0.32,-20.461 0.94,-26.4024 0.7,-5.8593 1.95,-10.4687 3.75,-13.91012 h -38.12 c 2.18,4.26172 3.67,9.30082 4.53,15.16012 0.82,5.9414 1.25,14.3008 1.25,25.1524 v 52.8202 c 0,7.379 -1.72,12.891 -5.16,16.559 -3.44,3.629 -8.71,5.468 -15.78,5.468 -6.68,0 -13.98,-2.269 -21.87,-6.718 l -6.57,-4.059 V 47.3008 c 0,-10.7422 0.39,-19.0625 1.25,-25 0.94,-5.8516 2.5,-10.9297 4.69,-15.31252 h -39.37 c 2.18,4.26172 3.67,9.30082 4.53,15.16012 0.82,5.9414 1.25,14.3008 1.25,25.1524 v 52.6601 c 0,7.5001 -1.72,13.0511 -5.16,16.7191 -3.44,3.629 -8.75,5.468 -15.94,5.468 -6.17,0 -13.67,-2.347 -22.5,-7.027 l -6.09,-3.133 V 47.3008 c 0,-10.7422 0.39,-19.0625 1.25,-25 0.94,-5.8516 2.5,-10.9297 4.69,-15.31252 h -39.38 c 2.19,4.26172 3.67,9.38282 4.53,15.31252 0.82,5.8203 1.25,14.1484 1.25,25 z" /><path
         id="path188"
         style="fill:#002a46;fill-opacity:1;fill-rule:nonzero;stroke:none"
         d="m 3373.98,3.87109 c -18.98,0 -34.53,6.32811 -46.71,19.05861 -12.19,12.8086 -18.29,29.2187 -18.29,49.2187 0,21.7618 5.32,39.8396 15.94,54.2226 10.7,14.449 24.14,21.719 40.31,21.719 h 0.16 c 15.7,0 27.85,-5.469 36.41,-16.41 8.51,-10.942 12.81,-26.52 12.81,-46.7191 v -12.5 h -76.56 c 1.33,-12.5 5,-22.9296 10.93,-31.25 7.58,-10.4296 17.86,-15.6211 30.79,-15.6211 5.82,0 11.56,0.6993 17.18,2.1797 5.71,1.5703 10.86,3.75 15.47,6.5703 L 3401.48,7.92969 c -6.05,-1.64063 -10.89,-2.73047 -14.53,-3.28125 -3.67,-0.50781 -7.97,-0.77735 -12.97,-0.77735 z m 17.97,87.80861 c -0.11,11.9493 -2.34,21.1293 -6.72,27.5003 -4.37,6.332 -10.74,9.531 -19.06,9.531 h 0.16 c -9.18,0 -16.25,-3.91 -21.25,-11.723 -3.99,-6.25 -6.37,-14.687 -7.19,-25.3083 z" /><path
         id="path190"
         style="fill:#002a46;fill-opacity:1;fill-rule:nonzero;stroke:none"
         d="m 3442.66,47.3008 v 57.3472 c 0,7.5 -0.47,14.223 -1.41,20.153 -0.86,5.937 -2.34,12.66 -4.53,20.16 h 33.44 v -23.91 l 20.93,24.07 c 7.07,1.949 13.01,2.969 17.82,2.969 12.5,0 21.95,-3.988 28.43,-11.879 6.57,-7.813 9.85,-19.18 9.85,-34.063 V 47.3008 c 0,-11.4805 0.35,-20.1524 1.09,-26.0899 0.7,-5.8593 2.03,-10.5898 3.91,-14.22262 h -38.44 c 2.27,4.26172 3.83,9.30082 4.69,15.16012 0.82,5.9414 1.25,14.3008 1.25,25.1524 v 50.9375 c 0,8.0117 -1.88,13.9917 -5.63,17.9727 -3.75,3.949 -9.49,5.937 -17.18,5.937 -5.24,0 -12.04,-1.949 -20.47,-5.777 l -6.25,-2.82 V 47.3008 c 0,-10.7422 0.39,-19.0625 1.25,-25 0.93,-5.8516 2.5,-10.9297 4.68,-15.31252 h -39.37 c 2.19,4.26172 3.75,9.38282 4.69,15.31252 0.82,5.8203 1.25,14.1484 1.25,25 z" /><path
         id="path192"
         style="fill:#002a46;fill-opacity:1;fill-rule:nonzero;stroke:none"
         d="m 3615.86,3.87109 c -10.86,0 -18.75,3.19922 -23.75,9.67971 -4.92,6.4492 -7.34,16.7578 -7.34,30.9375 v 81.4097 h -19.54 l 47.04,49.532 v -30.469 h 32.18 v -19.063 h -32.18 V 56.0508 c 0,-9.3711 1.56,-16.3594 4.68,-20.9297 3.21,-4.6094 8.01,-6.8828 14.38,-6.8828 3.94,0 7.54,0.4726 10.78,1.4101 3.2,0.9414 7.11,2.543 11.72,4.8399 L 3642.89,8.08984 c -4.8,-1.64062 -9.02,-2.73828 -12.66,-3.28906 -3.55,-0.62109 -8.35,-0.92969 -14.37,-0.92969 z" /><path
         id="path194"
         style="fill:#002a46;fill-opacity:1;fill-rule:nonzero;stroke:none"
         d="m 3718.28,3.87109 c -17.42,0 -31.95,6.43751 -43.59,19.36721 -11.57,12.8906 -17.35,29.1015 -17.35,48.6015 0,21.8711 6.45,40.0392 19.38,54.5312 12.89,14.449 29.06,21.719 48.44,21.719 17.5,0 32.03,-6.531 43.59,-19.539 11.56,-12.93 17.34,-29.1408 17.34,-48.5901 0,-21.8007 -6.48,-39.9218 -19.37,-54.3711 -12.81,-14.5 -28.99,-21.71871 -48.44,-21.71871 z m 14.84,19.36721 c 7.5,3.1328 13.44,8.832 17.82,17.1914 4.37,8.3203 6.56,18.0508 6.56,29.2187 0,17.5821 -4.3,31.7226 -12.81,42.3396 -8.44,10.633 -19.92,16.172 -34.38,16.723 -7.42,-3.051 -13.28,-8.75 -17.65,-17.191 -4.38,-8.43 -6.57,-18.2387 -6.57,-29.3716 0,-17.6171 4.22,-31.7187 12.66,-42.3476 8.52,-10.5391 20,-16.0508 34.37,-16.5625 z" /></g></g></svg>